<svg width="50" height="50" viewBox="0 0 50 50" fill="none" xmlns="http://www.w3.org/2000/svg">
<path d="M4.16602 6.25L4.7181 6.43333C7.4681 7.35 8.8431 7.80833 9.62852 8.9C10.416 9.99167 10.416 11.4417 10.416 14.3396V19.7917C10.416 25.6833 10.416 28.6312 12.2473 30.4604C14.0764 32.2917 17.0243 32.2917 22.916 32.2917H39.5827" stroke="black" stroke-width="1.5" stroke-linecap="round"/>
<path d="M15.625 37.5C16.4538 37.5 17.2487 37.8292 17.8347 38.4153C18.4208 39.0013 18.75 39.7962 18.75 40.625C18.75 41.4538 18.4208 42.2487 17.8347 42.8347C17.2487 43.4208 16.4538 43.75 15.625 43.75C14.7962 43.75 14.0013 43.4208 13.4153 42.8347C12.8292 42.2487 12.5 41.4538 12.5 40.625C12.5 39.7962 12.8292 39.0013 13.4153 38.4153C14.0013 37.8292 14.7962 37.5 15.625 37.5ZM34.375 37.5C35.2038 37.5 35.9987 37.8292 36.5847 38.4153C37.1708 39.0013 37.5 39.7962 37.5 40.625C37.5 41.4538 37.1708 42.2487 36.5847 42.8347C35.9987 43.4208 35.2038 43.75 34.375 43.75C33.5462 43.75 32.7513 43.4208 32.1653 42.8347C31.5792 42.2487 31.25 41.4538 31.25 40.625C31.25 39.7962 31.5792 39.0013 32.1653 38.4153C32.7513 37.8292 33.5462 37.5 34.375 37.5Z" stroke="black" stroke-width="1.5"/>
<path d="M22.916 18.75H16.666" stroke="black" stroke-width="1.5" stroke-linecap="round"/>
<path d="M10.416 12.5H34.2702C38.5514 12.5 40.6931 12.5 41.6202 13.9042C42.5452 15.3104 41.7035 17.2771 40.016 21.2125L39.1223 23.2958C38.3348 25.1333 37.941 26.05 37.1598 26.5667C36.3764 27.0833 35.3764 27.0833 33.3785 27.0833H10.416" stroke="black" stroke-width="1.5"/>
</svg>
