<svg width="19" height="22" viewBox="0 0 19 22" fill="none" xmlns="http://www.w3.org/2000/svg">
<path d="M16.7917 5.25H14.7083C14.7083 2.33333 12.4167 0.0416679 9.5 0.0416679C6.58333 0.0416679 4.29167 2.33333 4.29167 5.25H2.20833C1.0625 5.25 0.125 6.1875 0.125 7.33333V19.8333C0.125 20.9792 1.0625 21.9167 2.20833 21.9167H16.7917C17.9375 21.9167 18.875 20.9792 18.875 19.8333V7.33333C18.875 6.1875 17.9375 5.25 16.7917 5.25ZM9.5 2.125C11.2708 2.125 12.625 3.47917 12.625 5.25H6.375C6.375 3.47917 7.72917 2.125 9.5 2.125ZM16.7917 19.8333H2.20833V7.33333H16.7917V19.8333ZM9.5 11.5C7.72917 11.5 6.375 10.1458 6.375 8.375H4.29167C4.29167 11.2917 6.58333 13.5833 9.5 13.5833C12.4167 13.5833 14.7083 11.2917 14.7083 8.375H12.625C12.625 10.1458 11.2708 11.5 9.5 11.5Z" fill="black"/>
</svg>
