<svg width="24" height="24" viewBox="0 0 24 24" fill="none" xmlns="http://www.w3.org/2000/svg">
<path d="M5.89697 3.08694C7.18797 1.23994 9.21297 0.0119401 11.997 0.0129401C14.783 0.0129401 16.807 1.24094 18.099 3.08694C19.36 4.89094 19.888 7.22494 19.888 9.47194C19.888 9.60894 19.884 9.80294 19.881 9.95894L19.879 10.0549L20.793 12.3409L20.796 12.3479C21.069 13.0599 21.346 13.8179 21.551 14.4799C22.037 16.0429 22.22 17.2029 22.235 18.0149C22.242 18.4159 22.21 18.7709 22.131 19.0609C22.0863 19.2301 22.0158 19.3913 21.922 19.5389C21.8336 19.6769 21.7162 19.7939 21.5781 19.882C21.4399 19.97 21.2843 20.027 21.122 20.0489C20.686 20.1009 20.35 19.8929 20.222 19.8069C20.0612 19.6945 19.9118 19.5666 19.776 19.4249C19.7015 19.3472 19.6291 19.2675 19.559 19.1859C19.3159 19.7555 19.0014 20.2918 18.623 20.7819C18.819 20.8849 19.006 20.9979 19.173 21.1219C19.521 21.3819 19.774 21.7219 19.865 22.1299C19.952 22.5199 19.868 22.8829 19.712 23.1469C19.5865 23.3519 19.405 23.5167 19.189 23.6219C19.0588 23.6866 18.922 23.7369 18.781 23.7719C18.5088 23.838 18.232 23.8831 17.953 23.9069C17.361 23.9659 16.613 23.9869 15.856 23.9849C14.411 23.9829 12.821 23.9009 12.001 23.8169C11.181 23.9009 9.59097 23.9829 8.14597 23.9849C7.44613 23.9923 6.74633 23.9663 6.04897 23.9069C5.76994 23.8831 5.49313 23.838 5.22097 23.7719C5.07993 23.7369 4.94312 23.6866 4.81297 23.6219C4.59709 23.5173 4.41588 23.3528 4.29097 23.1479L4.29297 23.1519C4.11189 22.8435 4.05571 22.4775 4.13597 22.1289C4.22597 21.7189 4.48197 21.3789 4.83097 21.1209L4.83197 21.1199C4.99797 20.9969 5.18397 20.8849 5.37797 20.7829C4.99947 20.2925 4.68494 19.7558 4.44197 19.1859C4.37147 19.2676 4.29877 19.3472 4.22397 19.4249C4.08847 19.5665 3.93942 19.6944 3.77897 19.8069C3.65097 19.8919 3.31497 20.1019 2.87797 20.0489H2.87497C2.71367 20.0269 2.55904 19.9703 2.42165 19.883C2.28427 19.7956 2.16737 19.6796 2.07897 19.5429C1.98459 19.3948 1.91375 19.2328 1.86897 19.0629C1.78516 18.7202 1.74948 18.3675 1.76297 18.0149C1.77697 17.2019 1.95897 16.0429 2.44397 14.4809C2.64897 13.8199 2.92597 13.0609 3.19997 12.3469L3.20497 12.3339L4.11597 10.0549L4.10697 9.47194C4.10697 7.22494 4.63497 4.89094 5.89697 3.08694ZM4.07197 16.2669L5.92297 13.2629V16.7929C5.92297 17.8349 6.47997 19.3139 7.75997 20.3979L9.15397 21.5779L7.83497 21.9849H8.14297C9.60997 21.9829 11.205 21.8949 11.889 21.8179L12.001 21.8049L12.113 21.8179C12.797 21.8949 14.393 21.9829 15.859 21.9849H16.166L14.846 21.5769L16.241 20.3969C17.521 19.3139 18.077 17.8349 18.077 16.7919V13.2619L19.929 16.2679L19.932 16.2719L19.942 16.2889L19.985 16.3579L19.995 16.3739C19.8932 15.9363 19.7752 15.5027 19.641 15.0739C19.4247 14.3989 19.1879 13.7306 18.931 13.0699L17.874 10.4299V10.2369L17.881 9.91694C17.884 9.75994 17.888 9.58494 17.888 9.47194C17.888 7.49894 17.418 5.60494 16.46 4.23294C15.531 2.90494 14.11 2.01294 11.998 2.01294C9.88497 2.01294 8.46397 2.90494 7.53497 4.23294C6.57597 5.60394 6.10697 7.49994 6.10697 9.47194C6.10697 9.67194 6.11597 10.0289 6.11897 10.1659L6.11997 10.2169L6.12397 10.4199L5.06397 13.0699C4.80649 13.73 4.56971 14.398 4.35397 15.0729M4.07197 16.2669L4.06897 16.2719L4.05897 16.2889L4.01597 16.3579L3.99897 16.3839C4.08497 16.0006 4.2033 15.5639 4.35397 15.0739" fill="black"/>
</svg>
