<svg width="30" height="30" viewBox="0 0 30 30" fill="none" xmlns="http://www.w3.org/2000/svg">
<path fill-rule="evenodd" clip-rule="evenodd" d="M7.23503 17.525C7.28874 17.5429 7.34396 17.5559 7.40003 17.5637C7.75368 18.3971 8.10535 19.2312 8.45503 20.0662C9.08378 21.5687 9.71753 23.1162 9.85628 23.5612C10.03 24.1087 10.2125 24.4812 10.4125 24.7362C10.5163 24.8662 10.635 24.9812 10.775 25.0687C10.848 25.1144 10.926 25.1513 11.0075 25.1787C11.4075 25.3287 11.7725 25.2662 12.0013 25.19C12.1355 25.1442 12.2632 25.0811 12.3813 25.0025L12.3875 25L15.92 22.7975L20.0013 25.925C20.0613 25.9712 20.1263 26.01 20.1963 26.0412C20.6863 26.2537 21.1613 26.3287 21.6088 26.2687C22.0538 26.2062 22.4075 26.02 22.6713 25.8087C22.9741 25.5646 23.2156 25.253 23.3763 24.8987L23.3875 24.8712L23.3913 24.8612L23.3938 24.8562V24.8537L23.395 24.8525C23.4168 24.7987 23.4335 24.7431 23.445 24.6862L27.17 5.90498C27.1818 5.84486 27.1877 5.78374 27.1875 5.72248C27.1875 5.17248 26.98 4.64873 26.4938 4.33248C26.0763 4.06123 25.6125 4.04873 25.3188 4.07123C25.0038 4.09623 24.7113 4.17373 24.515 4.23623C24.4052 4.27105 24.2967 4.31025 24.19 4.35373L24.1763 4.35998L3.28378 12.555L3.28128 12.5562C3.21059 12.5822 3.14095 12.611 3.07253 12.6425C2.90685 12.717 2.74793 12.8056 2.59753 12.9075C2.31378 13.1012 1.66003 13.6337 1.77128 14.5137C1.85878 15.2137 2.33878 15.645 2.63253 15.8525C2.79253 15.9662 2.94503 16.0475 3.05753 16.1012C3.10753 16.1262 3.21503 16.1687 3.26128 16.1887L3.27378 16.1925L7.23503 17.525ZM24.9075 6.08498H24.905C24.8943 6.08976 24.8834 6.09434 24.8725 6.09873L3.95503 14.305C3.94427 14.3093 3.93343 14.3135 3.92253 14.3175L3.91003 14.3212C3.87182 14.3362 3.83428 14.3529 3.79753 14.3712C3.83232 14.3912 3.86821 14.4091 3.90503 14.425L7.83253 15.7475C7.90271 15.7711 7.96985 15.803 8.03253 15.8425L21.0038 8.24873L21.0163 8.24248C21.0667 8.21186 21.1184 8.1835 21.1713 8.15748C21.2613 8.11123 21.405 8.04373 21.5675 7.99373C21.68 7.95873 22.0138 7.85998 22.3738 7.97623C22.5647 8.03642 22.7349 8.14909 22.8649 8.30138C22.9948 8.45368 23.0794 8.63945 23.1088 8.83748C23.1553 9.01092 23.1566 9.1934 23.1125 9.36748C23.025 9.71123 22.785 9.97873 22.5663 10.1837C22.3788 10.3587 19.9463 12.7037 17.5475 15.0187L14.2813 18.1687L13.7 18.7312L21.04 24.3587C21.1391 24.4003 21.2467 24.4175 21.3538 24.4087C21.4077 24.4014 21.4584 24.3789 21.5 24.3437C21.5507 24.301 21.5942 24.2503 21.6288 24.1937L21.6313 24.1925L25.2438 5.97623C25.13 6.0036 25.0184 6.03954 24.91 6.08373L24.9075 6.08498ZM14.3313 21.5775L12.8663 20.455L12.5113 22.7112L14.3313 21.5775ZM11.5225 18.2275L12.9788 16.8212L16.245 13.6687L17.4613 12.4962L9.31128 17.2675L9.35503 17.37C9.86903 18.5843 10.3774 19.801 10.88 21.02L11.2338 18.77C11.2658 18.5613 11.3676 18.3709 11.5225 18.2275Z" fill="black"/>
</svg>
