<svg width="30" height="30" viewBox="0 0 30 30" fill="none" xmlns="http://www.w3.org/2000/svg">
<path fill-rule="evenodd" clip-rule="evenodd" d="M29.2563 21.0814C28.5763 19.7119 27.6802 18.4609 26.6025 17.3764C26.242 16.969 25.8646 16.577 25.4713 16.2014L25.4238 16.1551C25.2777 16.0137 25.1335 15.8703 24.9912 15.7251C26.4646 13.6761 27.7252 11.4823 28.7537 9.17762L28.795 9.08512L28.8237 8.98762C28.96 8.53387 29.115 7.67137 28.565 6.89137C27.995 6.08637 27.0837 5.94137 26.4725 5.94137H23.6637C23.0756 5.91457 22.4941 6.07449 22.0024 6.39826C21.5107 6.72202 21.134 7.19302 20.9262 7.74387C20.3218 9.18342 19.565 10.5541 18.6688 11.8326V8.54137C18.6688 8.11637 18.6287 7.40387 18.1725 6.80387C17.6275 6.08387 16.8388 5.94137 16.2913 5.94137H11.8337C11.2521 5.92799 10.6876 6.13882 10.2571 6.53021C9.8266 6.9216 9.56314 7.46357 9.52125 8.04387L9.5175 8.10012V8.15637C9.5175 8.76262 9.7575 9.21012 9.95 9.49137C10.0363 9.61762 10.1275 9.73262 10.1863 9.80512L10.1988 9.82137C10.2613 9.89887 10.3025 9.95012 10.3438 10.0076C10.4537 10.1551 10.61 10.3851 10.655 10.9776V12.8189C9.76022 11.3205 9.02655 9.73167 8.46625 8.07887L8.45625 8.05137L8.44625 8.02512C8.29375 7.62637 8.05 7.04637 7.56125 6.60387C6.99125 6.08512 6.31625 5.94137 5.7025 5.94137H2.8525C2.23125 5.94137 1.4825 6.08637 0.92375 6.67512C0.375 7.25512 0.3125 7.95012 0.3125 8.31762V8.48512L0.3475 8.64762C1.13663 12.3111 2.76279 15.7423 5.09875 18.6726C6.16672 20.3568 7.61661 21.7655 9.33081 22.7845C11.045 23.8035 12.9753 24.4041 14.965 24.5376L15.0162 24.5414H15.0688C15.9763 24.5414 16.9225 24.4626 17.6338 23.9889C18.5925 23.3489 18.6688 22.3676 18.6688 21.8776V20.4551C18.915 20.6551 19.22 20.9226 19.5938 21.2826C20.0462 21.7351 20.4062 22.1276 20.715 22.4701L20.88 22.6526C21.12 22.9201 21.3563 23.1839 21.5713 23.4001C21.8412 23.6714 22.175 23.9701 22.5925 24.1914C23.0462 24.4301 23.5225 24.5389 24.0275 24.5389H26.8787C27.48 24.5389 28.3413 24.3964 28.9475 23.6939C29.6075 22.9289 29.5575 21.9901 29.35 21.3164L29.3125 21.1951L29.2563 21.0814ZM22.1062 21.2139C21.7188 20.7808 21.32 20.3582 20.91 19.9464L20.9062 19.9426C19.21 18.3076 18.4187 18.0239 17.8587 18.0239C17.56 18.0239 17.2313 18.0564 17.0175 18.3239C16.9213 18.4515 16.8581 18.6009 16.8337 18.7589C16.8036 18.9423 16.7902 19.128 16.7938 19.3139V21.8776C16.7938 22.1964 16.7412 22.3301 16.5938 22.4276C16.3975 22.5589 15.9788 22.6651 15.08 22.6651C13.3728 22.549 11.7175 22.0292 10.2502 21.1487C8.78297 20.2682 7.54565 19.052 6.64 17.6001L6.63 17.5839L6.6175 17.5689C4.44139 14.8603 2.92481 11.6829 2.1875 8.28762C2.1925 8.12512 2.2275 8.02637 2.285 7.96637C2.34375 7.90387 2.4875 7.81637 2.8525 7.81637H5.7025C6.01875 7.81637 6.18375 7.88637 6.3025 7.99262C6.435 8.11512 6.5525 8.32137 6.6925 8.68887C7.3925 10.7464 8.3375 12.6714 9.23375 14.0864C9.68125 14.7926 10.1213 15.3814 10.5188 15.7976C10.7175 16.0051 10.9113 16.1776 11.0975 16.3001C11.2762 16.4176 11.48 16.5114 11.69 16.5114C11.8 16.5114 11.9288 16.4989 12.0525 16.4451C12.1861 16.3861 12.2962 16.284 12.365 16.1551C12.4938 15.9201 12.53 15.5739 12.53 15.1201V10.9039C12.4637 9.88137 12.155 9.30512 11.855 8.89637C11.7942 8.81461 11.7317 8.73418 11.6675 8.65512L11.6512 8.63512C11.5979 8.57038 11.5471 8.50366 11.4988 8.43512C11.4372 8.35868 11.4002 8.26545 11.3925 8.16762C11.4023 8.06829 11.4497 7.97646 11.525 7.91094C11.6003 7.84541 11.6978 7.81113 11.7975 7.81512H16.2913C16.5487 7.81512 16.635 7.87762 16.6788 7.93637C16.7413 8.01762 16.7938 8.18637 16.7938 8.54137V14.2014C16.7938 14.8739 17.1038 15.3289 17.5538 15.3289C18.0713 15.3289 18.445 15.0151 19.0975 14.3626L19.1087 14.3501L19.1187 14.3389C20.5825 12.5542 21.7784 10.5658 22.6688 8.43637L22.6737 8.42137C22.7407 8.23323 22.8673 8.07214 23.0343 7.96268C23.2013 7.85322 23.3995 7.80139 23.5987 7.81512H26.4738C26.8638 7.81512 26.9913 7.91512 27.0338 7.97387C27.0775 8.03637 27.1088 8.17012 27.0338 8.43262C26.007 10.7281 24.7377 12.9071 23.2475 14.9326L23.2375 14.9476C23.0938 15.1689 22.935 15.4139 22.9125 15.6939C22.8875 15.9964 23.0175 16.2701 23.2463 16.5651C23.4125 16.8101 23.7563 17.1464 24.105 17.4876L24.1375 17.5201C24.5025 17.8776 24.8988 18.2651 25.2163 18.6401L25.225 18.6489L25.2337 18.6589C26.1805 19.6032 26.9678 20.6949 27.565 21.8914C27.66 22.2164 27.6025 22.3839 27.5275 22.4701C27.4412 22.5701 27.2475 22.6639 26.88 22.6639H24.0275C23.8331 22.6686 23.6407 22.6234 23.4688 22.5326C23.258 22.41 23.0667 22.2567 22.9012 22.0776C22.7225 21.8989 22.5287 21.6826 22.2913 21.4189L22.1062 21.2139Z" fill="black"/>
</svg>
